<svg xmlns="http://www.w3.org/2000/svg" xmlns:xlink="http://www.w3.org/1999/xlink" width="130" height="126" fill="none" viewBox="0 0 130 126">
  <path fill="#DDE3E9" d="M11.42 83.34V34.55a7.05 7.05 0 0 1 3.48-6.05L56.64 4.07a6.84 6.84 0 0 1 6.96 0l41.74 24.36a7.08 7.08 0 0 1 3.48 6.12v48.79a7.08 7.08 0 0 1-3.48 6.12l-27.9 16.28.07-.02-.07 9.72.07 10.56-20.56-12.01-.31-.17L14.9 89.46a7.08 7.08 0 0 1-3.48-6.12Z"/>
  <path fill="#006494" d="M51.33 52.75H7.97v34.57h43.36V52.75Z"/>
  <path fill="url(#a)" d="M0 42.38h60.45v52.63H0z" opacity=".1"/>
  <path fill="#fff" d="M56.27 47.87H12.9v34.56h43.36V47.87Z"/>
  <path fill="#0F2B46" d="M40.4 70.32H25.56l-3.2 7.15h-2.92L31.6 50.7h2.78l12.17 26.77h-2.97l-3.2-7.15Zm-1.03-2.3-6.4-14.37-6.4 14.38h12.8Z"/>
  <path stroke="#FFC857" stroke-miterlimit="10" stroke-width="2" d="M46.42 29.1V11.02L30.87 2l-15.55 9.03v18.06l15.55 9.04 15.55-9.04Z"/>
  <path fill="#006494" d="M120.87 34.86H77.52v34.56h43.35V34.86Z"/>
  <path fill="url(#b)" d="M69.55 24.49H130v52.63H69.55z" opacity=".1"/>
  <path fill="#fff" d="M125.81 29.97H82.47v34.56h43.36V29.97Z"/>
  <path fill="#0F2B46" fill-rule="evenodd" d="m102.72 35.55 2.74-.27.23 3.06a74.1 74.1 0 0 0 6-1.85l.19 2.88s-2.12.88-5.98 1.85l.35 4.84c2.11-.12 3.8.03 5.18.35.27-1.2.26-1.98.26-1.98l2.58.8c-.1.72-.25 1.41-.42 2.06 3.3 1.78 3.25 4.76 3.25 4.76.09 1.58-.84 2.69-2.3 3.7-.46.32-.9.09-.43-.48 2.4-2.84.28-4.9-1.22-5.88-3.26 8.07-11.24 9.85-11.24 9.85-8.83 2.2-9.3-3.62-9.3-3.62-.44-7 9.2-9 9.2-9 .58-.12 1.14-.2 1.68-.29l-.32-4.47a86.7 86.7 0 0 1-7.64 1.26l-.23-2.58s3.32-.5 7.67-1.52l-.25-3.47ZM95.4 54.5c-.37-2.96 3.45-5.09 8.26-5.85l.5 6.9c-.6.32-1.23.61-1.92.89 0 0-6.28 2.3-6.84-1.94Zm11.02-6.13.4 5.42a13.45 13.45 0 0 0 3.93-5.25c-1.43-.18-2.9-.24-4.33-.17Z" clip-rule="evenodd"/>
  <defs>
    <pattern id="a" width="1" height="1" patternContentUnits="objectBoundingBox">
      <use transform="scale(.00478 .00552)" xlink:href="#c"/>
    </pattern>
    <pattern id="b" width="1" height="1" patternContentUnits="objectBoundingBox">
      <use transform="scale(.00478 .00552)" xlink:href="#c"/>
    </pattern>
  </defs>
</svg>