<svg width="100" height="100" viewBox="0 0 100 100" fill="none" xmlns="http://www.w3.org/2000/svg">
<path fill-rule="evenodd" clip-rule="evenodd" d="M24 62.6504V29.4141C24 27.7355 24.9053 26.1528 26.3825 25.2896L54.9723 8.64746C56.4494 7.78418 58.2601 7.78418 59.7372 8.64746L88.327 25.2416C89.8042 26.1049 90.7095 27.6876 90.7095 29.4141V62.6504C90.7095 64.3769 89.8042 65.9596 88.327 66.8229L69.2169 77.9148L69.2672 77.9023L69.2196 84.5208L69.2672 91.7148L55.1816 83.5324C55.1111 83.4958 55.0413 83.4574 54.9723 83.417L26.3825 66.8229C24.9053 65.9596 24 64.3769 24 62.6504Z" fill="#DDE3E9"/>
<path fill-rule="evenodd" clip-rule="evenodd" d="M59.3982 33.6467L31.9444 20.189L5 33.1223L5.00231 33.7549L5.00251 33.7967L5.00327 33.9189C5.00403 34.0261 5.00533 34.1837 5.00752 34.3867C5.01191 34.7928 5.01985 35.3805 5.0341 36.1092C5.06259 37.5662 5.11631 39.5882 5.21728 41.8486C5.41838 46.3506 5.80936 51.8645 6.57771 55.7327L6.57797 55.734C8.71336 66.411 15.1159 73.8598 20.9316 78.6181C23.8421 80.9994 26.6191 82.7186 28.6707 83.8436C29.6971 84.4065 30.5439 84.8217 31.1374 85.0976C31.4342 85.2355 31.6678 85.3387 31.8291 85.4082C31.9098 85.4429 31.9724 85.4692 32.0158 85.4872L32.0663 85.508L32.0805 85.5137L32.0848 85.5154L32.0862 85.516C32.0867 85.5162 32.0872 85.5164 32.4586 84.5879L32.0872 85.5164L32.5041 85.6832L32.9066 85.482L32.9119 85.4793L32.9259 85.4722L32.9771 85.4461C33.0214 85.4235 33.0858 85.3902 33.169 85.3464C33.3356 85.259 33.5776 85.1296 33.8853 84.9592C34.5006 84.6183 35.379 84.1131 36.4409 83.4505C38.5633 82.126 41.4267 80.1679 44.3915 77.6314C50.2957 72.58 56.7296 65.1252 58.3442 55.7069L58.3445 55.7052C58.8509 52.7198 59.1107 47.3317 59.2465 42.7544C59.3148 40.452 59.3522 38.3323 59.3725 36.7885C59.3826 36.0165 59.3885 35.3881 59.3919 34.9524C59.3936 34.7346 59.3946 34.565 59.3952 34.4496L59.3961 34.2725L59.3982 33.6467ZM59.3961 34.2725C59.3961 34.2724 59.3961 34.2724 59.299 34.2721C59.185 34.2718 58.9369 34.271 58.3972 34.2692L59.3961 34.2725ZM32.9066 85.482L32.4586 84.5879C32.9058 85.4824 32.9061 85.4822 32.9066 85.482ZM6.0023 33.7504L5.00231 33.7549C5.00231 33.7547 5.00231 33.7541 6.0023 33.7504ZM7.03372 36.0701C7.01974 35.355 7.01189 34.7775 7.00754 34.3771L31.9352 22.4118L57.3923 34.8908L57.392 34.937C57.3886 35.3695 57.3828 35.9942 57.3727 36.7622C57.3524 38.2985 57.3153 40.4066 57.2474 42.6951C57.1108 47.2988 56.8519 52.5439 56.373 55.3689C54.875 64.1069 48.859 71.1771 43.0913 76.1117C40.2202 78.5681 37.4421 80.4682 35.3821 81.7537C34.3528 82.396 33.5047 82.8837 32.9163 83.2096C32.7194 83.3186 32.5517 83.4095 32.4161 83.482C32.2951 83.4284 32.1492 83.3624 31.9803 83.2839C31.4229 83.0248 30.6161 82.6295 29.6324 82.09C27.6636 81.0104 24.9938 79.3577 22.198 77.0702C16.6013 72.4911 10.5539 65.4151 8.53922 55.3423C7.8033 51.6368 7.41621 46.2574 7.21529 41.7594C7.11524 39.5196 7.06197 37.5149 7.03372 36.0701ZM28.2876 62.1195L47.1504 44.3346L45.7783 42.8794L28.3286 59.332L20.1964 51.1999L18.7822 52.6141L28.2876 62.1195Z" fill="#0F2B46"/>
</svg>
