<svg width="100" height="100" viewBox="0 0 100 100" fill="none" xmlns="http://www.w3.org/2000/svg">
<path fill-rule="evenodd" clip-rule="evenodd" d="M24 62.6504V29.4141C24 27.7355 24.9053 26.1528 26.3825 25.2896L54.9723 8.64746C56.4494 7.78418 58.2601 7.78418 59.7372 8.64746L88.327 25.2416C89.8042 26.1049 90.7095 27.6876 90.7095 29.4141V62.6504C90.7095 64.3769 89.8042 65.9596 88.327 66.8229L69.2169 77.9148L69.2672 77.9023L69.2196 84.5208L69.2672 91.7148L55.1816 83.5324C55.1111 83.4958 55.0413 83.4574 54.9723 83.417L26.3825 66.8229C24.9053 65.9596 24 64.3769 24 62.6504Z" fill="#DDE3E9"/>
<path fill-rule="evenodd" clip-rule="evenodd" d="M20 25C18.8954 25 18 25.8954 18 27V29H13C12.4477 29 12 29.4477 12 30C12 30.5523 12.4477 31 13 31H18V33C18 34.1046 18.8954 35 20 35H24C25.1046 35 26 34.1046 26 33V27C26 25.8954 25.1046 25 24 25H20ZM20 27H24V33H20V27ZM29 29C28.4477 29 28 29.4477 28 30C28 30.5523 28.4477 31 29 31L55 31C55.5523 31 56 30.5523 56 30C56 29.4477 55.5523 29 55 29L29 29ZM50 41C49.4477 41 49 41.4477 49 42C49 42.5523 49.4477 43 50 43H55C55.5523 43 56 42.5523 56 42C56 41.4477 55.5523 41 55 41H50ZM32 54C32 53.4477 32.4477 53 33 53L55 53C55.5523 53 56 53.4477 56 54C56 54.5523 55.5523 55 55 55L33 55C32.4477 55 32 54.5523 32 54ZM47 65C46.4477 65 46 65.4477 46 66C46 66.5523 46.4477 67 47 67H55C55.5523 67 56 66.5523 56 66C56 65.4477 55.5523 65 55 65H47ZM39 39C39 37.8954 39.8954 37 41 37H45C46.1046 37 47 37.8954 47 39V45C47 46.1046 46.1046 47 45 47H41C39.8954 47 39 46.1046 39 45V43H13C12.4477 43 12 42.5523 12 42C12 41.4477 12.4477 41 13 41H39V39ZM45 39H41V45H45V39ZM24 49C22.8954 49 22 49.8954 22 51V53H13C12.4477 53 12 53.4477 12 54C12 54.5523 12.4477 55 13 55H22V57C22 58.1046 22.8954 59 24 59H28C29.1046 59 30 58.1046 30 57V51C30 49.8954 29.1046 49 28 49H24ZM36 63C36 61.8954 36.8954 61 38 61H42C43.1046 61 44 61.8954 44 63V69C44 70.1046 43.1046 71 42 71H38C36.8954 71 36 70.1046 36 69V67H11C10.4477 67 10 66.5523 10 66C10 65.4477 10.4477 65 11 65H36V63ZM38 69V66V63H42V69H38ZM24 51H28V57H24V51Z" fill="#0F2B46"/>
</svg>
