<svg width="100" height="100" viewBox="0 0 100 100" fill="none" xmlns="http://www.w3.org/2000/svg">
<path fill-rule="evenodd" clip-rule="evenodd" d="M24 62.6504V29.4141C24 27.7355 24.9053 26.1528 26.3825 25.2896L54.9723 8.64746C56.4494 7.78418 58.2601 7.78418 59.7372 8.64746L88.327 25.2416C89.8042 26.1049 90.7095 27.6876 90.7095 29.4141V62.6504C90.7095 64.3769 89.8042 65.9596 88.327 66.8229L69.2169 77.9148L69.2672 77.9023L69.2196 84.5208L69.2672 91.7148L55.1816 83.5324C55.1111 83.4958 55.0413 83.4574 54.9723 83.417L26.3825 66.8229C24.9053 65.9596 24 64.3769 24 62.6504Z" fill="#DDE3E9"/>
<path fill-rule="evenodd" clip-rule="evenodd" d="M12 27C12 21.0227 16.8247 16 22.6935 16C24.3 16 25.9834 16.7461 27.5228 17.7166C29.0862 18.7022 30.6263 20.0003 31.9725 21.2734C33.3228 22.5503 34.5009 23.8238 35.3403 24.7764C35.7606 25.2533 36.0974 25.6514 36.3299 25.9312C36.4462 26.0712 36.5366 26.1818 36.5983 26.2579C36.6292 26.296 36.6529 26.3255 36.6692 26.3458L36.688 26.3693L36.6894 26.3711L36.693 26.3755L36.7088 26.395C36.7232 26.4125 36.7452 26.4392 36.7743 26.4744C36.8326 26.5448 36.9198 26.6492 37.0331 26.7827C37.2597 27.0499 37.5908 27.4332 38.005 27.894C38.8345 28.8169 39.9918 30.044 41.3075 31.2678C42.6272 32.4953 44.0839 33.6984 45.5121 34.5889C46.9652 35.4949 48.2677 36 49.3065 36C54.0125 36 58 31.9318 58 27C58 22.0682 54.0125 18 49.3065 18C48.1744 18 46.8254 18.5214 45.3661 19.4378C43.9262 20.342 42.4834 21.5638 41.1879 22.8113L39.8007 21.3705C41.1488 20.0725 42.7022 18.7489 44.3025 17.744C45.8834 16.7513 47.6187 16 49.3065 16C55.1753 16 60 21.0227 60 27C60 32.9773 55.1753 38 49.3065 38C47.7016 38 46.008 37.2551 44.4539 36.2861C42.8749 35.3016 41.3134 34.0047 39.9454 32.7322C38.5733 31.456 37.3734 30.1831 36.5175 29.231C36.089 28.7543 35.7454 28.3564 35.5081 28.0767C35.3894 27.9368 35.2971 27.8263 35.2341 27.7502C35.2026 27.7122 35.1784 27.6827 35.1617 27.6624L35.1426 27.639L35.1374 27.6326L35.1359 27.6307C35.1357 27.6305 35.1351 27.6298 35.9119 27L35.1351 27.6298L35.1283 27.6214L35.1277 27.6206L35.1242 27.6162L35.1087 27.5968C35.0947 27.5793 35.0732 27.5526 35.0447 27.5175C34.9877 27.4471 34.9025 27.3428 34.7916 27.2094C34.5698 26.9424 34.2457 26.5592 33.8398 26.0986C33.0269 25.1762 31.8918 23.9497 30.5984 22.7266C29.3009 21.4997 27.8668 20.2978 26.4562 19.4084C25.0214 18.5039 23.7307 18 22.6935 18C17.9875 18 14 22.0682 14 27C14 31.9318 17.9875 36 22.6935 36C23.8256 36 25.1746 35.4786 26.6339 34.5622C28.0738 33.658 29.5166 32.4362 30.8121 31.1887L32.1993 32.6295C30.8512 33.9275 29.2978 35.2511 27.6975 36.256C26.1166 37.2487 24.3813 38 22.6935 38C16.8247 38 12 32.9773 12 27Z" fill="#0F2B46"/>
<rect x="37" y="44" width="41" height="2" rx="1" fill="#0F2B46"/>
<rect x="37" y="54" width="41" height="2" rx="1" fill="#0F2B46"/>
<rect x="37" y="64" width="19" height="2" rx="1" fill="#0F2B46"/>
</svg>
