<svg width="100" height="100" viewBox="0 0 100 100" fill="none" xmlns="http://www.w3.org/2000/svg">
<path fill-rule="evenodd" clip-rule="evenodd" d="M24 62.6504V29.4141C24 27.7355 24.9053 26.1528 26.3825 25.2896L54.9723 8.64746C56.4494 7.78418 58.2601 7.78418 59.7372 8.64746L88.327 25.2416C89.8042 26.1049 90.7095 27.6876 90.7095 29.4141V62.6504C90.7095 64.3769 89.8042 65.9596 88.327 66.8229L69.2169 77.9148L69.2672 77.9023L69.2196 84.5208L69.2672 91.7148L55.1816 83.5324C55.1111 83.4958 55.0413 83.4574 54.9723 83.417L26.3825 66.8229C24.9053 65.9596 24 64.3769 24 62.6504Z" fill="#DDE3E9"/>
<path fill-rule="evenodd" clip-rule="evenodd" d="M10 23.291H11H47.3514H47.7978L48.0958 23.6233L52.2825 28.2906L52.2906 28.2996L52.2984 28.3088L56.2858 32.9761L56.5255 33.2567V33.6257V77.6319V78.6319H55.5255H11H10V77.6319V24.291V23.291ZM12 25.291V76.6319H54.5255V34.6254H46.8857H45.8857V33.6254V25.291H12ZM50.7856 29.6171L53.3557 32.6254H47.8857V26.3843L50.7856 29.6171ZM22.791 42.5925H44.8349V40.5925H22.791V42.5925ZM44.8349 52.5127H22.791V50.5127H44.8349V52.5127ZM22.791 62.4321H44.8349V60.4321H22.791V62.4321Z" fill="#0F2B46"/>
</svg>
