<?xml version="1.0" encoding="UTF-8"?><svg id="a" xmlns="http://www.w3.org/2000/svg" xmlns:xlink="http://www.w3.org/1999/xlink" viewBox="0 0 496.09 537.77"><defs><style>.e{fill:#64c6ea;}.f,.g{fill:#fff;}.h{fill:#f1f9fe;}.i{fill:#043c5e;}.j{fill:#222c53;}.k{fill:#f9d9dd;}.l{fill:#2a488c;}.m{fill:url(#c);}.n{fill:#eb5768;}.o{fill:#4696d2;}.p{fill:#00666a;}.q{fill:#e1f2fa;}.r{fill:#93cfc7;}.s{fill:#f4a086;}.t{fill:#ffd247;}.u{fill:none;stroke:#212b53;stroke-miterlimit:10;}.v{clip-path:url(#b);}.w{fill:#24295a;}.x{fill:#212b53;}.g{opacity:.33;}.y{fill:url(#d);}.a`{fill:#f2e1f0;}.aa{fill:#e83c3d;}.ab{fill:#deefea;}.ac{fill:#ffdb71;}.ad{fill:#63c1c5;}.ae{fill:#f7a605;}.af{fill:#f0838b;}.ag{fill:#f8b68f;}.ah{fill:#b0d9c8;}.ai{fill:#88bd29;}.aj{fill:#083c5e;}.ak{fill:#01898c;}.al{fill:#84cff0;}.am{fill:#ffd248;}.an{fill:#359fa8;}</style><clipPath id="b"><path class="aj" d="M154.26,47.58c.16,4.25,1.16,18.35,7.48,26.99,.94,1.29,2.39,2.15,3.98,2.25,13.4,.84,28.67-4.32,33.88-6.26,1.27-.47,2.25-1.48,2.7-2.75,1.54-4.39,4.07-15.83-2.19-33.58-.41-1.15-1.34-2.06-2.5-2.45-13.86-4.58-39.15,9.36-42.6,13.55-.52,.63-.78,1.43-.75,2.24Z"/></clipPath><linearGradient id="c" x1="-183.32" y1="718.3" x2="-149.29" y2="718.3" gradientTransform="translate(762.84 -61.2) rotate(53.56)" gradientUnits="userSpaceOnUse"><stop offset="0" stop-color="#e0f0eb"/><stop offset="1" stop-color="#c0e4ef"/></linearGradient><linearGradient id="d" x1="-170.93" y1="723.94" x2="-149.29" y2="723.94" gradientTransform="translate(762.84 -61.2) rotate(53.56)" gradientUnits="userSpaceOnUse"><stop offset=".24" stop-color="#e0f0eb"/><stop offset=".5" stop-color="#d9edeb"/><stop offset=".88" stop-color="#c7e6ee"/><stop offset="1" stop-color="#c0e4ef"/></linearGradient></defs><g><path class="q" d="M447.39,210.22c-.39-.5-2.76-1.02-5.47-1.07-.6-2.26-1.52-4.39-2.72-6.33,1.74-1.61,3.41-3.49,3.22-4.65-.39-2.35-5.48-6.35-6.48-6.48-.64-.08-2.75,1.28-4.73,3.22-1.93-1.16-4.05-2.06-6.29-2.64,.09-2.37-.05-4.89-1.01-5.58-1.94-1.39-8.37-.62-9.17,0-.5,.39-1.02,2.75-1.07,5.45-2.32,.53-4.5,1.4-6.5,2.56-1.57-1.67-3.36-3.21-4.47-3.03-2.35,.39-6.35,5.48-6.48,6.48-.08,.6,1.1,2.46,2.82,4.31-1.31,2.04-2.31,4.29-2.95,6.69-2.15-.04-4.25,.17-4.87,1.03-1.39,1.94-.62,8.37,0,9.17,.35,.45,2.29,.91,4.64,1.04,.56,2.53,1.52,4.91,2.81,7.06-1.44,1.43-2.65,2.95-2.48,3.94,.39,2.35,5.48,6.35,6.48,6.48,.55,.07,2.19-.93,3.89-2.44,2.16,1.33,4.55,2.33,7.1,2.91,0,2.02,.22,3.94,1.03,4.53,1.94,1.39,8.37,.62,9.17,0,.45-.35,.91-2.3,1.04-4.66,2.47-.63,4.78-1.66,6.86-3,1.48,1.53,3.1,2.85,4.14,2.68,2.35-.39,6.35-5.48,6.48-6.48,.08-.6-1.11-2.48-2.85-4.34,1.18-2.05,2.07-4.29,2.6-6.67,2.27,.07,4.59-.11,5.25-1.02,1.39-1.94,.62-8.37,0-9.17Zm-28.39,15.63c-5.86,0-10.6-4.75-10.6-10.6s4.75-10.6,10.6-10.6,10.6,4.75,10.6,10.6-4.75,10.6-10.6,10.6Z"/><path class="f" d="M419.08,230.5c-8.54,0-15.48-6.95-15.48-15.48s6.95-15.48,15.48-15.48,15.48,6.95,15.48,15.48-6.95,15.48-15.48,15.48Zm0-29.97c-7.99,0-14.48,6.5-14.48,14.48s6.5,14.48,14.48,14.48,14.48-6.5,14.48-14.48-6.5-14.48-14.48-14.48Z"/><g><path class="f" d="M440.5,210.65c-.1-.01-.2-.02-.3-.04,.33,1.51,.52,3.08,.52,4.69,0,11.93-9.71,21.64-21.63,21.64-7.81,0-14.67-4.16-18.47-10.38h0c-.1,.02-.19,.04-.29,.05,3.84,6.35,10.82,10.61,18.77,10.61,12.08,0,21.92-9.83,21.92-21.92,0-1.59-.18-3.15-.5-4.65Z"/><path class="f" d="M405.85,198.2c3.66-2.84,8.25-4.53,13.23-4.53,.1,0,.19,0,.29,0-.03-.09-.06-.19-.09-.28-.07,0-.13,0-.2,0-5.02,0-9.65,1.7-13.35,4.56,.04,.09,.09,.17,.13,.26Z"/></g></g><g><path class="q" d="M363.77,52.69c-.58-.75-4.11-1.52-8.14-1.59-.89-3.36-2.27-6.53-4.05-9.42,2.59-2.4,5.07-5.19,4.79-6.92-.58-3.5-8.16-9.46-9.65-9.65-.95-.12-4.09,1.91-7.04,4.79-2.88-1.73-6.03-3.07-9.36-3.92,.14-3.53-.08-7.28-1.5-8.31-2.88-2.07-12.46-.92-13.64,0-.74,.58-1.51,4.09-1.59,8.11-3.45,.79-6.7,2.09-9.68,3.81-2.34-2.49-5-4.78-6.66-4.51-3.5,.58-9.46,8.16-9.65,9.65-.11,.89,1.63,3.66,4.2,6.42-1.95,3.03-3.44,6.38-4.39,9.95-3.19-.05-6.33,.25-7.25,1.53-2.07,2.88-.92,12.46,0,13.64,.52,.67,3.41,1.36,6.91,1.55,.83,3.76,2.26,7.3,4.19,10.51-2.15,2.13-3.94,4.39-3.69,5.87,.58,3.5,8.16,9.46,9.65,9.65,.82,.11,3.25-1.38,5.8-3.63,3.22,1.99,6.78,3.46,10.57,4.34-.01,3.01,.33,5.87,1.54,6.74,2.88,2.07,12.46,.92,13.64,0,.67-.52,1.36-3.42,1.55-6.93,3.67-.94,7.11-2.47,10.22-4.46,2.21,2.28,4.61,4.24,6.16,3.99,3.5-.58,9.46-8.16,9.65-9.65,.11-.89-1.65-3.69-4.23-6.46,1.76-3.05,3.08-6.39,3.86-9.93,3.38,.1,6.84-.16,7.81-1.52,2.07-2.88,.92-12.46,0-13.64Zm-42.26,23.26c-8.72,0-15.78-7.07-15.78-15.78s7.07-15.78,15.78-15.78,15.78,7.07,15.78,15.78-7.07,15.78-15.78,15.78Z"/><path class="f" d="M321.64,82.62c-12.57,0-22.8-10.23-22.8-22.8s10.23-22.8,22.8-22.8,22.8,10.23,22.8,22.8-10.23,22.8-22.8,22.8Zm0-44.6c-12.02,0-21.8,9.78-21.8,21.8s9.78,21.8,21.8,21.8,21.8-9.78,21.8-21.8-9.78-21.8-21.8-21.8Z"/><g><path class="f" d="M353.51,53.33c-.15-.02-.3-.04-.44-.06,.5,2.25,.77,4.58,.77,6.98,0,17.76-14.44,32.2-32.2,32.2-11.63,0-21.83-6.19-27.49-15.45h0c-.14,.03-.29,.06-.44,.08,5.72,9.46,16.1,15.79,27.93,15.79,17.99,0,32.62-14.63,32.62-32.62,0-2.37-.26-4.69-.74-6.92Z"/><path class="f" d="M301.95,34.79c5.45-4.22,12.28-6.75,19.69-6.75,.15,0,.29,0,.43,.01-.05-.14-.1-.28-.14-.42-.1,0-.19,0-.29,0-7.48,0-14.37,2.53-19.88,6.78,.07,.13,.13,.25,.19,.38Z"/></g></g><g><g><path class="aj" d="M259.41,90.37l41.26,9.02s10.83-46.04,7.06-47.62c-3.77-1.58-5.82,.15-5.82,.15,0,0-2.63-7.54-9.24-9.91-6.61-2.37-21.42-5.77-21.42-5.77l-11.83,54.13Z"/><path class="al" d="M293.77,42.47c2.46,.94,13.09,5.65,14.73,10.1-2.99-2.11-6.59-.65-6.59-.65,0,0-2.75-6.98-8.14-9.45Z"/></g><rect class="f" x="275.86" y="58.66" width="24.07" height=".81" transform="translate(19.25 -60.1) rotate(12.33)"/><rect class="f" x="274.92" y="62.94" width="24.07" height=".81" transform="translate(20.14 -59.8) rotate(12.33)"/><rect class="f" x="273.99" y="67.21" width="24.07" height=".81" transform="translate(21.03 -59.5) rotate(12.33)"/></g><g><path class="i" d="M356.26,99.77c-2.19,15.36-14.94,16.99-14.94,16.99l24.56,10.6s10.01-5.42,9.2-19.84c-.81-14.42-16.63-23.12-18.82-7.76Z"/><rect class="x" x="346.34" y="30.85" width="65.43" height="90.6" rx="1.47" ry="1.47" transform="translate(158.93 394) rotate(-66.65)"/><rect class="e" x="335.79" y="44.91" width="86.53" height="62.48" rx="1.41" ry="1.41" transform="translate(61.21 -143.98) rotate(23.35)"/><path class="f" d="M390.72,46.37c-.12,.28,0,.6,.28,.72,.28,.12,.6,0,.72-.28,.12-.28,0-.6-.28-.72s-.6,0-.72,.28Z"/><rect class="h" x="339.5" y="48.1" width="79.25" height="56.34" transform="translate(61.26 -144) rotate(23.35)"/><rect class="e" x="349.31" y="50.12" width="79.25" height="6.85" transform="translate(53.06 -149.74) rotate(23.35)"/><g><g><polygon class="o" points="369.49 98.43 363.44 95.82 372.43 75.65 378.95 78.46 369.49 98.43"/><polygon class="q" points="379.48 102.75 372.97 99.93 385.14 69.11 392.61 72.33 379.48 102.75"/><rect class="n" x="387.28" y="79.22" width="7.1" height="27.21" transform="translate(68.78 -147.28) rotate(23.35)"/><polygon class="x" points="388.7 106.72 382.18 103.91 392.96 78.93 400.19 82.05 388.7 106.72"/><polygon class="aa" points="397.91 110.7 391.39 107.88 408.42 68.42 416.84 72.06 397.91 110.7"/></g><polygon class="f" points="387.35 60.99 387.78 62.6 371.05 64.71 369.64 59.49 348.96 61.43 347.98 63.69 368.22 61.55 369.64 66.82 388.28 64.46 388.71 66.11 393.82 62.12 387.35 60.99"/><g><g><rect class="ad" x="349.91" y="69.6" width="1" height="17.42" transform="translate(139.65 368.99) rotate(-66.65)"/><rect class="ad" x="349.11" y="71.44" width="1" height="17.42" transform="translate(137.48 369.38) rotate(-66.65)"/><rect class="ad" x="348.32" y="73.28" width="1" height="17.42" transform="translate(135.31 369.76) rotate(-66.65)"/><rect class="ad" x="347.52" y="75.12" width="1" height="17.42" transform="translate(133.14 370.14) rotate(-66.65)"/></g><rect class="ad" x="343.19" y="73.08" width="17.42" height="3.52" transform="translate(58.47 -133.32) rotate(23.35)"/></g></g><path class="x" d="M419.18,66.65c-.44,1.01,.03,2.18,1.04,2.61s2.18-.03,2.61-1.04c.43-1.01-.03-2.18-1.04-2.61-1.01-.44-2.18,.03-2.61,1.04Z"/><path class="f" d="M413.45,64.18c-.43,1.01,.03,2.18,1.04,2.61,1.01,.44,2.18-.03,2.61-1.04,.43-1.01-.03-2.18-1.04-2.61-1.01-.44-2.18,.03-2.61,1.04Z"/><rect class="f" x="353.26" y="41.67" width="25.29" height="3.98" transform="translate(47.26 -141.43) rotate(23.35)"/></g><g><path class="aj" d="M154.26,47.58c.16,4.25,1.16,18.35,7.48,26.99,.94,1.29,2.39,2.15,3.98,2.25,13.4,.84,28.67-4.32,33.88-6.26,1.27-.47,2.25-1.48,2.7-2.75,1.54-4.39,4.07-15.83-2.19-33.58-.41-1.15-1.34-2.06-2.5-2.45-13.86-4.58-39.15,9.36-42.6,13.55-.52,.63-.78,1.43-.75,2.24Z"/><g class="v"><polygon class="f" points="180.42 55.67 153.37 45.69 153.99 44 179.95 53.58 200.3 32.75 201.59 34 180.42 55.67"/><rect class="f" x="153.29" y="60.85" width="24.57" height="1.8" transform="translate(15.93 155.74) rotate(-52.58)"/><rect class="f" x="195.16" y="43.19" width="1.8" height="23" transform="translate(34.76 178.84) rotate(-53.17)"/></g></g><g><path class="ae" d="M376.2,253.73l75.07-87.38c.16-4.55,1.45-4.89-.5-6.57l-7.4-1.93c-1.95-1.68-3.86-4.99-5.54-3.03l-75.1,87.42,13.47,11.5Z"/><rect class="ae" x="352.32" y="248.23" width="18.64" height="17.71" rx="4.66" ry="4.66" transform="translate(-69.02 363.87) rotate(-49.33)"/><path class="t" d="M376.2,253.73l75.07-87.38c1.68-1.95-3.33-9-3.33-9l-78.12,90.93,6.38,5.45Z"/><path class="t" d="M355.92,264.46l2.83,2.43c1.95,1.68,4.89,1.45,6.57-.5l6.07-7.07c1.68-1.95,1.45-4.89-.5-6.57l-2.83-2.43-12.15,14.14Z"/><rect class="a`" x="364.46" y="241.16" width="6.53" height="17.71" transform="translate(-61.55 366.01) rotate(-49.33)"/><polygon class="x" points="452.06 149.87 455.69 148.09 454.37 152.05 452.5 152.04 452.06 149.87"/><path class="ab" d="M454.37,152.05c-.45-.15-.87-.39-1.26-.72-.48-.41-.83-.92-1.05-1.47l-13.81,4.46,13.43,11.54,2.68-13.81Z"/></g><g><g><path class="e" d="M250.77,74.54l-17.36-.33s1.39-5.26,.95-9.33c-.17-1.54-1.08-2.9-2.38-3.74-16.88-10.87-12.54-22.97-12.54-22.97,0,0,2.06-15.41,23.95-16.49,23.34-1.16,21.56,19.54,21.56,19.54,0,0,.85,11.55-11.4,19.15-1.75,1.09-2.88,2.95-3.17,4.99-.72,5.13,.39,9.17,.39,9.17Z"/><path class="ah" d="M233.41,74.17l-.12,6.22c-.04,2.33,1.44,4.27,3.3,4.3l10.57,.2c1.86,.03,3.42-1.84,3.46-4.17l.12-6.22-17.34-.33Z"/><polygon class="r" points="237.69 84.72 238.83 87.58 245.41 87.7 246.9 84.89 237.69 84.72"/><path class="aj" d="M239.77,49.62c.22,0,.47,0,.71-.01l-.46,24.64,1.19,.02,.46-24.73c.85-.08,1.73-.22,2.62-.42,0,.46,.01,.92,0,1.35-.07,2.72-.15,5.43-.22,8.15-.14,5.24-.29,10.47-.43,15.7l1.19,.02c.23-8.52,.46-17.03,.7-25.55,1.51-.46,2.91-1.11,3.87-1.99,4.1-3.78-2.74-8.07-4.65-2.72-.43,1.21-.47,2.66-.46,4.07-.78,.21-1.81,.44-2.73,.58,0,0,.06-2.27,.06-3.74,0-.83-.24-1.66-.78-2.28-3.01-3.42-9.55-1.11-7,3.86,1.1,2.14,3.69,3,5.94,3.05Zm5.84-3.58c0-.59,.94-5.32,3.83-2.64,.3,.28,.47,.7,.41,1.11-.25,1.66-2.64,2.75-4.32,3.28,0-.58,0-1.17,.08-1.74Zm-10.22-3.77c1.99-.96,3.56,0,4.44,.9,.49,.5,.75,1.19,.74,1.89l-.07,3.79c-2.21,.15-4.34-.45-5.65-2.46-.89-1.37-.71-3.37,.54-4.12Z"/></g><path class="e" d="M265.68,17.87c-.35-.37-.34-.95,.02-1.3l8.93-8.6c.37-.35,.95-.34,1.3,.02,.35,.37,.34,.95-.02,1.3l-8.93,8.6c-.37,.35-.95,.34-1.3-.02Z"/><path class="e" d="M226.98,17.14c.37-.35,.38-.93,.02-1.3l-8.6-8.93c-.35-.37-.93-.38-1.3-.02-.37,.35-.38,.93-.02,1.3l8.6,8.93c.35,.37,.93,.38,1.3,.02Z"/><path class="e" d="M243.62,14.24c-.51,0-.91-.43-.9-.94l.23-12.4c0-.51,.43-.91,.94-.9,.51,0,.91,.43,.9,.94l-.23,12.4c0,.51-.43,.91-.94,.9Z"/></g><g><path class="q" d="M142.02,133.04c-.58-.75-4.11-1.52-8.14-1.59-.89-3.36-2.27-6.53-4.05-9.42,2.59-2.4,5.07-5.19,4.79-6.92-.58-3.5-8.16-9.46-9.65-9.65-.95-.12-4.09,1.91-7.04,4.79-2.88-1.73-6.03-3.07-9.36-3.92,.14-3.53-.08-7.28-1.5-8.31-2.88-2.07-12.46-.92-13.64,0-.74,.58-1.51,4.09-1.59,8.11-3.45,.79-6.7,2.09-9.68,3.81-2.34-2.49-5-4.78-6.66-4.51-3.5,.58-9.46,8.16-9.65,9.65-.11,.89,1.63,3.66,4.2,6.42-1.95,3.03-3.44,6.38-4.39,9.95-3.19-.05-6.33,.25-7.25,1.53-2.07,2.88-.92,12.46,0,13.64,.52,.67,3.41,1.36,6.91,1.55,.83,3.76,2.26,7.3,4.19,10.51-2.15,2.13-3.94,4.39-3.69,5.87,.58,3.5,8.16,9.46,9.65,9.65,.82,.11,3.25-1.38,5.8-3.63,3.22,1.99,6.78,3.46,10.57,4.34-.01,3.01,.33,5.87,1.54,6.74,2.88,2.07,12.46,.92,13.64,0,.67-.52,1.36-3.42,1.55-6.93,3.67-.94,7.11-2.47,10.22-4.46,2.21,2.28,4.61,4.24,6.16,3.99,3.5-.58,9.46-8.16,9.65-9.65,.11-.89-1.65-3.69-4.23-6.46,1.76-3.05,3.08-6.39,3.86-9.93,3.38,.1,6.84-.16,7.81-1.52,2.07-2.88,.92-12.46,0-13.64Zm-42.26,23.26c-8.72,0-15.78-7.07-15.78-15.78s7.07-15.78,15.78-15.78,15.78,7.07,15.78,15.78-7.07,15.78-15.78,15.78Z"/><path class="f" d="M99.89,162.97c-12.57,0-22.8-10.23-22.8-22.8s10.23-22.8,22.8-22.8,22.8,10.23,22.8,22.8-10.23,22.8-22.8,22.8Zm0-44.6c-12.02,0-21.8,9.78-21.8,21.8s9.78,21.8,21.8,21.8,21.8-9.78,21.8-21.8-9.78-21.8-21.8-21.8Z"/><g><path class="f" d="M131.76,133.68c-.15-.02-.3-.04-.44-.06,.5,2.25,.77,4.58,.77,6.98,0,17.76-14.44,32.2-32.2,32.2-11.63,0-21.83-6.19-27.49-15.45h0c-.14,.03-.29,.06-.44,.08,5.72,9.46,16.1,15.79,27.93,15.79,17.99,0,32.62-14.63,32.62-32.62,0-2.37-.26-4.69-.74-6.92Z"/><path class="f" d="M80.2,115.14c5.45-4.22,12.28-6.75,19.69-6.75,.15,0,.29,0,.43,.01-.05-.14-.1-.28-.14-.42-.1,0-.19,0-.29,0-7.48,0-14.37,2.53-19.88,6.78,.07,.13,.13,.25,.19,.38Z"/></g></g><path class="aj" d="M111.33,116.87l-5.69-3.25c-3.95-2.26-8.99-.88-11.24,3.07l-7.36,12.89c-.55-.73-1.26-1.35-2.14-1.79-2.79-1.41-6.31-.41-7.95,2.24-1.84,2.97-.83,6.84,2.17,8.55,2.06,1.18,4.5,1,6.36-.21l9.63-17.11c.89-1.58,2.9-2.14,4.48-1.24,2.65,1.51,6.56,3.75,9.21,5.25,1.57,.9,2.12,2.9,1.22,4.47l-5.01,8.77c-.56-.74-1.28-1.37-2.18-1.81-2.81-1.39-6.34-.36-7.96,2.32-1.78,2.96-.77,6.79,2.21,8.49,2.09,1.2,4.3,1.17,6.17-.09l11.15-19.28c2.29-3.96,.92-9.02-3.05-11.28Z"/><g><path class="x" d="M62.52,166.18c-6.01,5.15-.86,27.33,1.72,30.1,2.57,2.77,25.18,4.52,31.76-2.63,6.58-7.15,4.58-26.84,0-31.57-4.58-4.72-27.47-1.05-33.47,4.1Z"/><polygon class="f" points="76.54 174.75 77.97 183.92 84.69 177.62 76.54 174.75"/></g><g><g><path class="x" d="M397.73,177.99l2.81-2.9c.78-.81,.76-2.11-.04-2.89l-15.36-14.9c-.81-.78-2.11-.76-2.89,.04l-2.81,2.9c-.78,.81-.76,2.11-.48,1.13l15.36,14.9c1.33,2.54,2.63,2.52,3.41,1.72Z"/><rect class="x" x="393.93" y="175.06" width="9.12" height="1.73" rx=".37" ry=".37" transform="translate(802.25 12.43) rotate(134.13)"/></g><path class="u" d="M371.17,152.96c15.36-7.68,28.9-27.54,28.9-27.54l17.26,31.24s-27.77,2.68-39.25,8.8l-6.91-12.5Z"/><path class="x" d="M406.58,142.21c4.77,8.63,9.63,15.07,10.86,14.39,1.23-.68-1.63-8.23-6.4-16.85-4.77-8.63-9.63-15.07-10.86-14.39-1.23,.68,1.63,8.23,6.4,16.85Z"/><path class="ae" d="M367.63,154.83l6.27-3.46,7.12,12.88-6.27,3.46c-2.98,1.65-6.77,.56-8.42-2.43l-1.13-2.04c-1.65-2.98-.56-6.77,2.43-8.42Z"/><path class="x" d="M415.84,128.75c.1-.03,.2-.09,.27-.17l11.21-12.61c.22-.24,.2-.62-.05-.84-.24-.22-.62-.2-.84,.05l-11.21,12.61c-.22,.24-.2,.62,.05,.84,.16,.14,.37,.18,.56,.13Z"/><path class="x" d="M420.01,143.36c.09,.06,.19,.1,.31,.11l16.83,1.2c.33,.02,.61-.22,.63-.55,.02-.33-.22-.61-.55-.63l-16.83-1.2c-.33-.02-.61,.22-.63,.55-.02,.21,.08,.41,.24,.52Z"/><path class="x" d="M418.95,135.42c.1,.03,.22,.03,.33,0l16.11-5c.31-.1,.49-.43,.39-.74-.1-.31-.43-.49-.74-.39l-16.11,5c-.31,.1-.49,.43-.39,.74,.06,.2,.23,.35,.42,.4Z"/></g><g><g><path class="x" d="M113.15,88.83c4.88,6.79,14.33,8.33,21.12,3.45,6.79-4.88,8.33-14.33,3.45-21.12-4.88-6.79-14.33-8.33-21.12-3.45-6.79,4.88-8.33,14.33-3.45,21.12Z"/><path class="ad" d="M133.09,55.46c.8,1.11,.83,2.45,.07,2.99l-3.18,2.29c-.76,.54-2.01,.09-2.81-1.02h0c-.8-1.11-.83-2.45-.07-2.99l3.18-2.29c.76-.54,2.01-.09,2.81,1.02h0Z"/><path class="i" d="M118.13,70.95c-5,3.6-6.14,10.56-2.54,15.57,3.6,5,10.56,6.14,15.57,2.54,5-3.6,6.14-10.56,2.54-15.57-3.6-5-10.56-6.14-15.57-2.54Zm10.55,14.66c-3.01,2.17-7.22,1.48-9.38-1.53-2.17-3.01-1.48-7.22,1.53-9.38,3.01-2.17,7.22-1.48,9.38,1.53,2.17,3.02,1.48,7.22-1.53,9.38Z"/><path class="e" d="M134.29,54.32l-37.4,26.89c-.96,.69-1.22,1.98-.58,2.88l15.77,21.94c.65,.9,1.95,1.06,2.92,.37l37.4-26.89c.96-.69,1.22-1.98,.58-2.88l-15.77-21.94c-.65-.9-1.95-1.06-2.91-.37Zm-30.59,26.33l-1.69,1.22c-.49,.35-1.03,.43-1.21,.17-.18-.25,.06-.74,.55-1.09l1.69-1.22c.49-.35,1.03-.43,1.21-.17,.18,.25-.06,.74-.55,1.09Zm29.42,10.67c-6.3,4.53-15.08,3.09-19.61-3.21-4.53-6.3-3.09-15.08,3.21-19.61,6.3-4.53,15.08-3.09,19.61,3.21,4.86,6.76,3.09,15.08-3.21,19.61Z"/><path class="q" d="M135.66,53.89v0s-.06,0-.09,0c.11,1.09,.19,2.17,.23,3.33,.04,1.2,.09,2.41,.13,3.61,.09,2.39,.15,4.79,.11,7.19-.02,1.06-.06,2.11-.12,3.17,.14,.17,.27,.35,.4,.53,4.86,6.76,3.09,15.08-3.21,19.61-.22,.16-.44,.3-.66,.44-.23,.87-.47,1.74-.72,2.6l20.66-14.85c.96-.69,1.22-1.98,.58-2.88l-15.77-21.94c-.36-.51-.94-.78-1.54-.8Z"/></g><path class="f" d="M123.81,78.1c.66,.92,1.94,1.13,2.86,.47,.92-.66,1.13-1.94,.47-2.86-.66-.92-1.94-1.13-2.86-.47-.92,.66-1.13,1.94-.47,2.86Z"/><path class="f" d="M125.06,80.61c.22,.31,.65,.38,.95,.16,.31-.22,.38-.65,.16-.95s-.65-.38-.95-.16c-.31,.22-.38,.65-.16,.95Z"/></g><path class="x" d="M368.9,166.43c1.19-5,1.84-10.21,1.84-15.58,0-36.94-29.95-66.89-66.89-66.89-13.97,0-26.93,4.29-37.66,11.61-14.94-20.14-38.89-33.19-65.89-33.19-45.29,0-82,36.71-82,82,0,8.57,1.32,16.83,3.76,24.6-24.4,7.67-42.09,30.47-42.09,57.4,0,33.23,26.94,60.17,60.17,60.17h223.89c33.23,0,60.17-26.94,60.17-60.17s-24.35-57.47-55.3-59.96Z"/><path class="h" d="M355.56,166.43c1.19-5,1.84-10.21,1.84-15.58,0-36.94-29.95-66.89-66.89-66.89-13.97,0-26.93,4.29-37.66,11.61-14.94-20.14-38.89-33.19-65.89-33.19-45.29,0-82,36.71-82,82,0,8.57,1.32,16.83,3.76,24.6-24.4,7.67-42.1,30.47-42.1,57.4,0,33.23,26.94,60.17,60.17,60.17h223.89c33.23,0,60.17-26.94,60.17-60.17s-24.35-57.47-55.3-59.96Z"/><g><g><polygon class="af" points="306.22 218.74 328.21 207.49 339.31 205.63 347.61 207.11 306.22 218.74"/><polyline class="k" points="306.22 218.74 347.02 209.6 347.61 207.11"/><polygon class="aa" points="347.96 216.58 347.9 216.67 346.01 222.9 306.32 218.75 347.96 216.58"/><polygon class="af" points="355.8 213.14 350.17 208.28 306.49 218.68 343.81 218.74 355.8 213.14"/></g><g><path class="ah" d="M444.32,296.18c-1.31-.51-2.6-1.12-3.84-1.81-.28-.16-.64-.06-.8,.23-.16,.28-.06,.64,.23,.8,1.29,.72,2.63,1.35,3.99,1.88,.49,.19,.99,.37,1.49,.54,.18,.06,.37,.03,.52-.07,.1-.07,.18-.17,.22-.3,.1-.31-.06-.64-.37-.74-.48-.16-.96-.33-1.43-.52Z"/><path class="ah" d="M367.76,209.13c-1.84,.18-3.76,.42-5.87,.74-.32,.05-.54,.35-.49,.67,.05,.32,.35,.54,.67,.49,2.08-.32,3.98-.56,5.8-.73,.1-.01,.2-.05,.28-.1,.17-.12,.27-.32,.25-.54-.03-.32-.32-.56-.64-.53Z"/><path class="ah" d="M377.55,209.89c.15-.1,.24-.27,.25-.46,.01-.32-.24-.6-.57-.61-1.89-.08-3.88-.06-5.93,.05-.32,.02-.58,.29-.56,.62,.02,.32,.29,.57,.62,.56,2.02-.11,3.98-.12,5.83-.05,.13,0,.26-.03,.36-.1Z"/><path class="ah" d="M433.2,288.73c-.23-.23-.6-.25-.83-.02-.23,.23-.24,.6-.02,.83,1.38,1.44,2.9,2.75,4.52,3.91,.21,.15,.48,.14,.68,0,.05-.04,.1-.08,.14-.14,.19-.26,.13-.63-.14-.82-1.56-1.12-3.03-2.39-4.36-3.77Z"/><path class="ah" d="M430.83,286.93c.26-.2,.31-.57,.11-.83-.32-.42-.63-.84-.93-1.27-.8-1.16-1.52-2.37-2.15-3.6-.15-.29-.5-.41-.79-.26-.28,.15-.41,.5-.26,.79,.65,1.28,1.4,2.54,2.23,3.74,.31,.45,.63,.89,.96,1.32,.19,.25,.54,.3,.8,.12l.02-.02Z"/><path class="ah" d="M426.13,278.82s.09-.04,.13-.07c.22-.15,.31-.43,.21-.69-.64-1.72-1.17-3.54-1.62-5.56-.07-.32-.38-.52-.7-.45-.31,.07-.52,.38-.45,.7,.45,2.08,1,3.95,1.66,5.72,.11,.3,.45,.46,.76,.34Z"/><path class="ah" d="M412.11,228.16c.47,.61,.93,1.24,1.37,1.87,.66,.96,1.3,1.95,1.88,2.94,.16,.28,.52,.37,.8,.21,.01,0,.03-.02,.04-.02,.25-.17,.33-.51,.17-.78-.6-1.02-1.24-2.04-1.93-3.02-.45-.65-.92-1.29-1.4-1.92-.2-.26-.55-.34-.83-.11-.26,.2-.3,.57-.11,.82Z"/><path class="ah" d="M416.99,236.05c.85,1.75,1.57,3.56,2.16,5.38,.1,.31,.43,.48,.74,.38,.06-.02,.11-.04,.15-.08,.21-.14,.31-.41,.22-.66-.61-1.87-1.36-3.73-2.22-5.53-.14-.29-.49-.41-.79-.27-.29,.14-.42,.49-.27,.79Z"/><path class="ah" d="M405.75,221.4c1.46,1.27,2.85,2.65,4.13,4.08,.2,.22,.53,.26,.77,.09,.02-.01,.04-.03,.06-.05,.24-.22,.26-.59,.05-.83-1.32-1.47-2.74-2.88-4.23-4.18-.24-.21-.62-.19-.83,.06-.21,.24-.19,.62,.06,.83Z"/><path class="ah" d="M395.12,214.37c.2,.1,.42,.07,.59-.05,.08-.06,.15-.13,.19-.23,.14-.29,.02-.64-.28-.78-1.8-.86-3.65-1.61-5.52-2.23-.31-.1-.64,.07-.74,.37-.1,.31,.07,.64,.37,.74,1.82,.6,3.63,1.33,5.38,2.17Z"/><path class="ah" d="M422.68,260.38c.11,0,.2-.05,.29-.1,.17-.12,.27-.32,.25-.53l-.06-.74c-.14-1.71-.28-3.42-.45-5.13-.03-.32-.32-.56-.64-.53-.32,.03-.56,.32-.53,.64,.17,1.7,.31,3.4,.45,5.11l.06,.74c.03,.32,.31,.56,.63,.54Z"/><path class="ah" d="M403.04,219.2c.21,.16,.49,.15,.69,.01,.05-.03,.1-.08,.14-.13,.2-.26,.14-.63-.12-.82-1.59-1.19-3.26-2.3-4.96-3.28-.28-.16-.64-.06-.8,.22-.16,.28-.07,.64,.22,.8,1.67,.96,3.3,2.04,4.84,3.2Z"/><path class="ah" d="M422.88,262.73c-.33,.03-.56,.32-.53,.64,.22,2.3,.44,4.17,.71,5.88,.05,.32,.35,.54,.67,.49,.09-.01,.17-.05,.24-.1,.18-.12,.28-.34,.25-.57-.26-1.69-.49-3.53-.7-5.81-.03-.32-.32-.56-.64-.53Z"/><path class="ah" d="M449.1,297.63c-.32-.07-.63,.12-.7,.44-.07,.32,.12,.63,.44,.7,1.82,.42,3.74,.73,5.87,.95,.15,.02,.28-.02,.39-.1,.14-.09,.23-.25,.25-.42,.03-.32-.2-.61-.53-.65-2.08-.21-3.96-.52-5.73-.92Z"/><path class="ah" d="M420.53,244.07c-.31,.08-.51,.39-.44,.71,.41,1.74,.75,3.62,1.03,5.73,.04,.32,.34,.55,.66,.5,.1-.01,.18-.05,.26-.1,.18-.12,.28-.34,.25-.56-.29-2.15-.64-4.06-1.06-5.84-.07-.32-.39-.51-.71-.44Z"/><path class="ah" d="M382.86,209.34c-.68-.1-1.37-.19-2.06-.26-.32-.03-.61,.2-.65,.52-.03,.32,.2,.61,.52,.65,.67,.07,1.34,.16,2.01,.26,1.24,.19,2.49,.43,3.71,.73,.17,.04,.34,0,.47-.09,.11-.08,.2-.2,.24-.34,.08-.32-.12-.63-.43-.71-1.26-.31-2.54-.56-3.81-.75Z"/><path class="ah" d="M458.32,298.81c-.32-.02-.6,.23-.62,.56-.02,.32,.23,.6,.56,.62,2.13,.11,4.27,.14,5.9,.16,.13,0,.24-.04,.34-.1,.15-.1,.25-.28,.25-.48,0-.32-.26-.59-.58-.59-1.62-.01-3.75-.05-5.86-.16Z"/></g></g><g><rect class="x" x="112.26" y="309.53" width="268.49" height="170.79" rx="4.73" ry="4.73"/><rect class="f" x="121.07" y="319.29" width="250.79" height="147.56" rx="6.33" ry="6.33"/><polygon class="q" points="112.94 476.74 52.91 517.92 437.77 517.92 380.15 476.52 112.94 476.74"/><g><path class="f" d="M306.63,510.09h-5.23c-.48,0-.92-.27-1.13-.71l-1.57-3.19c-.41-.84,.2-1.82,1.13-1.82h4.99c.45,0,.87,.24,1.1,.64l1.81,3.19c.48,.84-.13,1.89-1.1,1.89Z"/><path class="f" d="M317.54,510.09h-5.1c-.45,0-.86-.23-1.09-.62l-1.9-3.19c-.5-.84,.11-1.91,1.09-1.91h4.86c.42,0,.82,.21,1.05,.56l2.13,3.19c.56,.84-.04,1.97-1.05,1.97Z"/><path class="f" d="M171.22,488.51h-11.67c-.63,0-.94-.76-.49-1.21l2.34-2.31c.13-.13,.31-.2,.49-.2h11.31c.6,0,.93,.71,.53,1.16l-1.98,2.31c-.13,.16-.33,.25-.53,.25Z"/><path class="f" d="M289.61,510.11h-100.78c-.88,0-1.44-.95-1.02-1.72l1.86-3.4c.2-.37,.59-.6,1.02-.6h97.54c.47,0,.9,.29,1.08,.72l1.39,3.4c.31,.76-.25,1.6-1.08,1.6Z"/><path class="f" d="M151.73,488.51h-11.45c-.66,0-.96-.83-.44-1.25l2.86-2.31c.13-.1,.28-.16,.44-.16h11.08c.64,0,.95,.79,.48,1.22l-2.5,2.31c-.13,.12-.3,.19-.48,.19Z"/><path class="f" d="M211.23,488.51h-12.04c-.54,0-.88-.58-.62-1.05l1.29-2.31c.12-.22,.36-.36,.62-.36h11.68c.5,0,.84,.5,.65,.97l-.92,2.31c-.11,.27-.37,.44-.65,.44Z"/><path class="f" d="M191.78,488.51h-11.88c-.59,0-.92-.67-.56-1.14l1.8-2.31c.13-.17,.34-.27,.56-.27h11.52c.55,0,.89,.61,.6,1.08l-1.44,2.31c-.13,.21-.35,.33-.6,.33Z"/><path class="f" d="M250.94,488.51h-11.84c-.51,0-.91-.44-.86-.95l.19-1.99c.04-.44,.42-.78,.86-.78h11.53c.46,0,.84,.36,.87,.82l.12,1.99c.03,.5-.37,.92-.87,.92Z"/><path class="f" d="M231.73,488.51h-12.15c-.48,0-.82-.46-.67-.92l.74-2.31c.09-.29,.36-.49,.67-.49h11.79c.43,0,.77,.39,.69,.82l-.38,2.31c-.06,.34-.35,.59-.69,.59Z"/><path class="f" d="M162.98,498.11h-13.17c-.63,0-.94-.76-.49-1.21l3.19-3.15c.13-.13,.31-.2,.49-.2h12.68c.6,0,.93,.71,.53,1.16l-2.7,3.15c-.13,.16-.33,.25-.53,.25Z"/><path class="f" d="M141.35,498.11h-12.95c-.66,0-.96-.83-.44-1.25l3.9-3.15c.13-.1,.28-.16,.44-.16h12.46c.64,0,.95,.79,.48,1.22l-3.4,3.15c-.13,.12-.3,.19-.48,.19Z"/><path class="f" d="M207.39,498.11h-13.54c-.54,0-.88-.58-.62-1.05l1.75-3.15c.12-.22,.36-.36,.62-.36h13.05c.5,0,.84,.5,.65,.97l-1.26,3.15c-.11,.27-.37,.44-.65,.44Z"/><path class="f" d="M185.8,498.11h-13.38c-.59,0-.92-.67-.56-1.14l2.45-3.15c.13-.17,.34-.27,.56-.27h12.89c.55,0,.89,.61,.6,1.08l-1.96,3.15c-.13,.21-.35,.33-.6,.33Z"/><path class="f" d="M251.51,498.11h-13.34c-.51,0-.91-.44-.86-.95l.28-2.83c.04-.44,.42-.78,.86-.78h12.9c.46,0,.84,.36,.87,.82l.16,2.83c.03,.5-.37,.92-.87,.92Z"/><path class="f" d="M230.15,498.11h-13.65c-.48,0-.82-.46-.67-.92l1.01-3.15c.09-.29,.36-.49,.67-.49h13.16c.43,0,.77,.39,.7,.82l-.52,3.15c-.06,.34-.35,.59-.69,.59Z"/><path class="f" d="M319.1,488.51h11.67c.63,0,.94-.76,.49-1.21l-2.34-2.31c-.13-.13-.31-.2-.49-.2h-11.31c-.6,0-.93,.71-.53,1.16l1.98,2.31c.13,.16,.33,.25,.53,.25Z"/><path class="f" d="M338.58,488.51h11.45c.66,0,.96-.83,.44-1.25l-2.86-2.31c-.13-.1-.28-.16-.44-.16h-11.08c-.64,0-.95,.79-.48,1.22l2.5,2.31c.13,.12,.3,.19,.48,.19Z"/><path class="f" d="M279.09,488.51h12.04c.54,0,.88-.58,.62-1.05l-1.29-2.31c-.12-.22-.36-.36-.62-.36h-11.68c-.5,0-.84,.5-.65,.97l.92,2.31c.11,.27,.37,.44,.65,.44Z"/><path class="f" d="M298.54,488.51h11.88c.59,0,.92-.67,.56-1.14l-1.8-2.31c-.13-.17-.34-.27-.56-.27h-11.52c-.55,0-.89,.61-.6,1.08l1.44,2.31c.13,.21,.35,.33,.6,.33Z"/><path class="f" d="M258.59,488.51h12.15c.48,0,.82-.46,.67-.92l-.74-2.31c-.09-.29-.36-.49-.67-.49h-11.79c-.43,0-.77,.39-.69,.82l.38,2.31c.06,.34,.35,.59,.69,.59Z"/><path class="f" d="M327.34,498.11h13.17c.63,0,.94-.76,.49-1.21l-3.19-3.15c-.13-.13-.31-.2-.49-.2h-12.68c-.6,0-.93,.71-.53,1.16l2.7,3.15c.13,.16,.33,.25,.53,.25Z"/><path class="f" d="M348.96,498.11h12.95c.66,0,.96-.83,.44-1.25l-3.9-3.15c-.13-.1-.28-.16-.44-.16h-12.46c-.64,0-.95,.79-.48,1.22l3.4,3.15c.13,.12,.3,.19,.48,.19Z"/><path class="f" d="M282.93,498.11h13.54c.54,0,.88-.58,.62-1.05l-1.75-3.15c-.12-.22-.36-.36-.62-.36h-13.05c-.5,0-.84,.5-.65,.97l1.26,3.15c.11,.27,.37,.44,.65,.44Z"/><path class="f" d="M304.52,498.11h13.38c.59,0,.92-.67,.56-1.14l-2.45-3.15c-.13-.17-.34-.27-.56-.27h-12.89c-.55,0-.89,.61-.6,1.08l1.96,3.15c.13,.21,.35,.33,.6,.33Z"/><path class="f" d="M260.17,498.11h13.65c.48,0,.82-.46,.67-.92l-1.01-3.15c-.09-.29-.36-.49-.67-.49h-13.16c-.43,0-.77,.39-.69,.82l.52,3.15c.06,.34,.35,.59,.69,.59Z"/></g><path class="w" d="M424.78,530.9H65.9c-7.17,0-12.99-5.82-12.99-12.99H437.77c0,7.17-5.82,12.99-12.99,12.99Z"/></g><g><polygon class="f" points="363.42 462.14 130.09 462.69 130.42 323.96 363.39 323.69 363.42 462.14"/><polygon class="al" points="363.59 341.6 363.62 323.14 130.3 322.76 130.38 341.6 363.59 341.6"/></g><path class="f" d="M341.41,332.01c-.3,2.48,1.42,4.47,3.86,4.44,2.43-.03,4.66-2.06,4.96-4.54,.3-2.48-1.42-4.47-3.86-4.44-2.44,.03-4.65,2.06-4.96,4.54Z"/><path class="j" d="M328.76,332.15c-.3,2.48,1.42,4.46,3.85,4.43,2.43-.03,4.65-2.06,4.95-4.53,.3-2.48-1.42-4.47-3.86-4.44-2.43,.03-4.64,2.06-4.95,4.54Z"/><path class="ae" d="M198.8,380.34l-22.69,.1-4.13-3.93c-1.06-1.01-2.42-1.56-3.82-1.55l-17.24,.08c-1.78,0-3.21,1.59-3.2,3.54l.02,4.21,.05,9.94,.15,31.97c0,1.21,.92,2.2,2.03,2.2l49.05-.22c1.11,0,2.01-1,2.01-2.22l-.19-41.91c0-1.21-.92-2.2-2.03-2.2Z"/><path class="x" d="M346.39,380.34l-22.69,.1-4.13-3.93c-1.06-1.01-2.42-1.56-3.82-1.55l-17.24,.08c-1.78,0-3.21,1.59-3.2,3.54l.02,4.21,.05,9.94,.15,31.97c0,1.21,.92,2.2,2.03,2.2l49.05-.22c1.11,0,2.01-1,2.01-2.22l-.19-41.91c0-1.21-.92-2.2-2.03-2.2Z"/><g><path class="ai" d="M314.34,397.76c.44-4.36,4.13-7.77,8.6-7.77s8.16,3.41,8.6,7.77h2.64c-.45-5.81-5.32-10.4-11.24-10.4s-10.79,4.59-11.24,10.4h2.64Z"/><rect class="ai" x="311.51" y="397.45" width="22.87" height="18.92" rx=".76" ry=".76"/><path class="f" d="M334.38,399.31v-1.48c0-.21-.34-.38-.76-.38h-21.35c-.42,0-.76,.17-.76,.38v1.48h22.87Z"/><path class="f" d="M311.51,414.63v1.48c0,.21,.34,.38,.76,.38h21.35c.42,0,.76-.17,.76-.38v-1.48h-22.87Z"/><path class="aj" d="M325.52,405.67c0-1.23-1-2.22-2.22-2.22s-2.22,1-2.22,2.22c0,.79,.42,1.49,1.04,1.88v3.14c0,.65,.53,1.18,1.18,1.18s1.18-.53,1.18-1.18v-3.14c.62-.39,1.04-1.09,1.04-1.88Z"/></g><g><path class="al" d="M164.58,409.59h42.23s.75-47.29-3.27-48.03c-4.02-.74-5.65,1.39-5.65,1.39,0,0-4.18-6.8-11.15-7.7-6.97-.9-22.16-1.07-22.16-1.07v55.41Z"/><path class="aj" d="M187.92,355.46c2.6,.4,14,2.73,16.54,6.72-3.37-1.42-6.57,.77-6.57,.77,0,0-4.18-6.23-9.97-7.49Z"/></g><path class="t" d="M148.27,394.5c-2.14,0-3.8,1.87-3.54,4l3.2,26.2c0,1.21,.92,2.2,2.03,2.2l49.05-.22c1.11,0,2.01-1,2.01-2.22l2.96-25.98c.24-2.11-1.41-3.97-3.54-3.97h-52.17Z"/><rect class="f" x="173.69" y="372.52" width="24.07" height=".81"/><rect class="f" x="173.69" y="376.9" width="24.07" height=".81"/><rect class="f" x="173.69" y="381.27" width="24.07" height=".81"/><g><polygon class="ah" points="450.79 341.95 458.8 349.64 466.3 341.99 467.99 343.64 458.85 352.96 449.16 343.65 450.79 341.95"/><polygon class="ah" points="450.79 336.29 458.8 343.98 466.31 336.32 467.99 337.98 458.85 347.3 449.16 337.99 450.79 336.29"/></g><g><polygon class="ah" points="52.53 344.02 44.52 336.32 37.02 343.98 35.33 342.33 44.47 333 54.17 342.31 52.53 344.02"/><polygon class="ah" points="52.53 349.68 44.52 341.99 37.02 349.64 35.33 347.99 44.47 338.67 54.16 347.98 52.53 349.68"/></g><g><path class="ad" d="M365.6,437.07c1.35,0,2.71-.08,4.05-.23l-.11-.99c-1.3,.15-2.63,.22-3.94,.22v1Z"/><path class="ad" d="M377.3,434.04c2.5-.9,4.9-2.09,7.13-3.55l.55,.84c-2.3,1.5-4.76,2.73-7.33,3.65l-.34-.94Zm13.25-8.64c1.84-1.92,3.46-4.06,4.8-6.35l.86,.51c-1.39,2.36-3.05,4.55-4.94,6.53l-.72-.69Zm8.02-13.63c.78-2.53,1.27-5.17,1.45-7.83l1,.07c-.19,2.74-.69,5.45-1.5,8.05l-.96-.29Zm1.53-23.99h1v8.1h-1v-8.1Zm0-16.19h1v8.1h-1v-8.1Zm0-16.19h1v8.1h-1v-8.1Zm0-16.19h1v8.1h-1v-8.1Zm0-16.19h1v8.1h-1v-8.1Zm0-16.19h1v8.1h-1v-8.1Zm0-16.19h1v8.1h-1v-8.1Zm0-16.19h1v8.1h-1v-8.1Zm0-16.19h1v8.1h-1v-8.1Z"/><rect class="ad" x="400.11" y="246.12" width="1" height="4"/></g><path class="ad" d="M135.93,406.85h8v1h-8v-1Zm-15.98-.64l.28-.96c2.52,.73,5.13,1.21,7.75,1.44l-.09,1c-2.69-.24-5.36-.73-7.94-1.48Zm-14.31-7.36l.62-.79c2.07,1.63,4.3,3.07,6.63,4.27l-.46,.89c-2.39-1.23-4.68-2.7-6.79-4.38Zm-10.48-12.2l.87-.49c1.3,2.28,2.83,4.45,4.54,6.45l-.76,.65c-1.76-2.04-3.32-4.27-4.65-6.61Zm-5.11-15.26l.99-.13c.34,2.61,.93,5.2,1.76,7.69l-.95,.32c-.85-2.55-1.46-5.2-1.81-7.88Zm-.35-16.05h1v8h-1v-8Zm0-16h1v8h-1v-8Zm0-16h1v8h-1v-8Zm0-16h1v8h-1v-8Zm0-16h1v8h-1v-8Zm0-16h1v8h-1v-8Zm0-16h1v8h-1v-8Zm0-16h1v8h-1v-8Zm0-15.57h1v7.57h-1v-7.57Z"/><g><path class="ag" d="M121.57,382.14s-7.76,14.93-7.21,18.22c.54,3.28,7.21,8.99,7.21,8.99l1.08-1.86-3.38-7.65,4.36-12.55-2.05-5.14Z"/><polygon class="s" points="129.89 375.74 129.26 380.01 125.46 380.01 125.07 373.45 129.89 375.74"/><path class="t" d="M136.84,394.62v-12.05c-4.88-3.45-8.32-3.09-8.32-3.09-.86-.09-1.04-.09-2.17-.09-.03,0-8.17-.6-6.67,12.28,3.25,10.95,1.69,15.79,1.69,15.79,0,0,8.5,3.46,13.24,1.02-1.19-2.74,1.01-10.26,2.2-13.91l.03,.05Z"/><path class="x" d="M124.17,378.12s-3.23,1.89-3.23,4.89c0,1.86,.73,2.96,1.57,4.26,1.39,2.15,1.37,4.95-.16,7-.02,.03-.05,.06-.07,.09-.58,.75-.69,1.52-.54,2.25,.6,2.84,4.51,3.27,6.02,.79,.56-.91,1.09-2,1.49-3.26,.66-2.1,.01-3.42-.8-4.21-.69-.67-.77-1.76-.1-2.45,1.22-1.25,2.43-3.13,.9-4.8-2.56-2.78-3.28-5.39-3.28-5.39l-1.8,.82Z"/><path class="s" d="M116.97,474.34l2.28,.4c.47-2.82,7.55-16.21,8.13-23.16,.64-7.72,2.43-16.31,2.43-16.31l-7.62-2.26s-1.93,0,.19,15.73c-4.76,6.25-6.04,20.43-5.41,25.61Z"/><g><path class="ag" d="M133.38,365.65l-7.03-.33-1.25,4.84c-.02,.07-.03,.14-.04,.21,.11,.07,.22,.14,.33,.22,.02,.01,.03,.03,.05,.04,.02,.01,.03,.02,.05,.03,1.28,.92,1.81,2.5,1.71,4.04,.82,.5,1.72,.87,2.68,1.04,.65,.12,1.27,.15,1.64-.04,2.44-2.31,1.85-10.05,1.85-10.05Z"/><path class="x" d="M124.15,377.09c1.83,.21-1.07,0,1.83,.21,.08-1.54,5.03-5.54,5.98-6.35,2.4-2.07,2.23-4.57,2.23-4.57,0,0-4.78-5.16-7.88-4.06-2.43,.86-3.26,2.77-3.66,4.08-.34,1.15-1.05,3.11,1.51,10.7Z"/></g><path class="ag" d="M122.58,427.27s1.79,10.76,4.28,22.27c-2.6,6.95,1.36,26.35,1.43,26.28,.3-.28,1.67,1.4,1.67,1.4,0,0,2.89-17.12,3.53-24.84,.64-7.72,1.62-17.13,1.62-17.13l-12.52-7.99Z"/><path class="i" d="M127.97,474.73s-1.08,.92-.89,2.09,.48,3.92,.48,3.92h1.11l-.03-2.56c0-.17,2.39,2.56,2.79,2.56h5.9s.39-1.73-3.07-2.28c-3.46-.55-6.3-3.73-6.3-3.73Z"/><path class="ac" d="M124.17,376.48h1.8c.4,0,.73,.33,.73,.73v.17c0,.4-.33,.73-.73,.73h-1.8c-.4,0-.73-.33-.73-.73v-.17c0-.4,.33-.73,.73-.73Z"/><path class="x" d="M134.28,405.85s1.93,10.87,1.93,16.27c0,2.97-1.37,15.58-1.37,15.58,0,0-11.3,.33-13.59,.33-.29-8.94-3.63-14.83-3.63-21.99,0-5.05,4.45-9.45,4.45-9.45l12.21-.75Z"/><path class="ag" d="M155.82,393.24l-.51,.15c-1.03,.3-1.83,1.1-2.14,2.12l-.12,.4s-4.46,1.54-9.43,2.17c-5.07-14.43-6.78-15.52-6.78-15.52,0,0-3.27,1.04-3.27,4.99,0,3.31,2.21,12.7,6.42,15.64,1.16,.81,2.69,.88,3.97,.27,6.77-3.21,11.54-5.96,11.54-5.96l5.11-2.82-2.26-1.19c-.78-.41-1.69-.5-2.54-.26Z"/><g><path class="s" d="M119.51,472.78l-.16,2.44c-.03,.51,.11,1.02,.4,1.45,.32,.47,.87,1.11,1.77,1.84-1.71,.55-3.26-1.37-4.08-2.64-.4-.62-.55-1.36-.44-2.09l.29-1.92,2.22,.93Z"/><path class="x" d="M116.97,474.12s-1.5,.13-1.75,1.28c-.25,1.14-.96,3.46-.96,3.46l.82,.65,1.16-2.3s2.49,3.35,2.88,3.52h6.44s0-2.13-4.03-2.23c-3.71-.09-4.55-4.39-4.55-4.39Z"/></g></g><g><g><path class="i" d="M332.53,319.88l9.53-1.46c1.29-.06,2.76,.09,3.16,1.15,0,0,.28,.7,.36,1.43-.28,.45-12.99,1.92-12.99,1.92l-.06-.04c-1.58-1.41,0-3,0-3Z"/><polygon class="f" points="345.58 321 332.59 322.92 332.78 323.41 345.67 321.45 345.58 321"/><polygon class="f" points="336.3 319.3 337.16 319.17 337.07 320.38 336.24 320.51 336.3 319.3"/><polygon class="f" points="338.14 319.02 339 318.89 338.91 320.1 338.08 320.23 338.14 319.02"/><path class="ag" d="M331.39,316.81l1.14,3.08h0c.82,.27,1.82,.14,2.57-.33l.14-.09-.02-3.24-3.81,.58Z"/></g><g><path class="i" d="M362.79,314.89l1.79-9.48c.37-1.23,1-2.57,2.13-2.6,0,0,.75-.03,1.47,.14,.33,.41-2.51,12.89-2.51,12.89l-.06,.05c-1.85,1.03-2.83-1-2.83-1Z"/><polygon class="f" points="368.18 302.95 365.67 315.84 366.2 315.83 368.63 303.02 368.18 302.95"/><polygon class="f" points="363.49 311.14 363.66 310.29 364.77 310.77 364.61 311.6 363.49 311.14"/><polygon class="f" points="363.84 309.31 364.01 308.46 365.12 308.95 364.96 309.77 363.84 309.31"/><path class="ag" d="M359.51,314.94l3.28-.05h0c.53-.69,.74-1.67,.54-2.53l-.04-.16-3.07-1.06-.72,3.79Z"/></g><path class="o" d="M304.21,310.22s10.37,3.53,25.58,2.57c2.51-.16,5.03,.2,7.4,1.02,9.21,3.22,22.86,1.5,22.86,1.5l.98-4.28-45.52-11.89-11.29,11.07Z"/><g><polygon class="s" points="298.74 263.33 296.88 267.75 300.66 268.88 302.12 265.3 298.74 263.33"/><path class="ag" d="M299.24,255.55l-1.13,5.98c.59,.12,.79,.83,.54,1.36,.03,.15,.03,.31,0,.46,.84,.98,2.47,2.38,4.97,2.5,3.91,.19,3.41-7.58,3.41-7.58l-7.78-2.72Z"/><path class="aj" d="M296.29,259.53c.08-.44-.29-1.5-.55-1.87-1.67-2.34,.54-3.22,1.32-3.49,.86-.3,1.04-1.68,2.18-2.2,1.75-.79,2.87,.74,3.86,.79,.98,.05,1.87-1.06,3.08-.06s.8,2.03,1.12,2.59c.33,.56,1.44-.5,2.42,1.26,1.5,2.67-2.7,2.63-2.7,2.63,0,0-2.4,.37-5-1.46-.36-.25-.85-.28-1.18,0-.92,.77-2.12,5.7-2.12,5.7l-.77-1.03s-2.01-.86-1.66-2.87Z"/><path class="ag" d="M298.41,260.56c.08,.51,.55,.86,1.06,.78s.86-.55,.78-1.06-.55-.86-1.06-.78c-.51,.08-.86,.55-.78,1.06Z"/></g><path class="x" d="M289.05,297.13s1.08,12.21,12.14,13.12c11.06,.92,24.59-11.22,24.59-11.22l5.4,18.46,4.29-.65s1.97-27.27-3.91-28.96c-5.89-1.69-28.35,7.1-28.35,7.1l-14.15,2.15Z"/><path class="am" d="M289.05,297.13l18.18-2.76s-1.23-3.97-1.46-8.12c-.17-3.14,1.01-5.95,1.01-5.95-.99-6.94-3.52-13.71-9.66-12.98-10.49,2.57-8.06,29.81-8.06,29.81Z"/><polygon class="j" points="339.87 271.34 333.55 287.42 317.52 285.51 317.36 286.79 334.38 288.81 341.07 271.81 339.87 271.34"/><path class="ag" d="M299.57,281.24l7.18-1.09,.76,8.03,12.65-3.98,2.81-1.87c.72-.48,1.6-.68,2.46-.55l3.48,.5c.36,.05,.64,.33,.7,.69l1.27,3.71s-.83,.61-2.17-2.51c-.63,3.69-5.87,1.24-5.87,1.24l-1.76,1.24s-13.54,10.02-16.95,8.18c-3.41-1.84-4.55-13.6-4.55-13.6Z"/><path class="ag" d="M329.61,282.98c-.05-.36-.34-.64-.7-.69l-3.48-.5c-.86-.12-1.74,.07-2.46,.55l-2.81,1.87-.41,.13,.45,2.96c.56-.39,.88-.63,.88-.63l1.76-1.24s5.24,2.45,5.87-1.24c1.34,3.12,2.17,2.51,2.17,2.51l-1.27-3.71Z"/></g><g><g><path class="x" d="M419.45,505.44s-.01,2.73-5.49,4.36c-1.12,.34-.76,.67-.97,1.14h6.3l2.47-2.77,.77,.66,1.78-1.75s-.83-2.53-2.19-2.55c-1.12,.38-2.67,.91-2.67,.91Z"/><path class="ag" d="M418.43,503.08l1.02,2.36h0c.93,.27,1.93-.04,2.56-.78l.11-.13-.83-2.43-2.87,.98Z"/></g><g><path class="x" d="M391.69,506.53s-1.97,1.82-6.45,2.97c-.99,.25-2.05-.08-2.05,1.54h5.44l4.52-.78v.78h2.44s.68-4-.75-4.51h-3.16Z"/><path class="ag" d="M392.17,503.66l-.48,2.87h0c.89,.62,2.06,.66,2.99,.1l.17-.1-.24-2.87h-2.44Z"/></g><path class="l" d="M402,444.76s5.13,10.27,7.09,24.39c.42,3.04,1.52,5.98,3.28,8.49,5.01,7.14,9.45,25.03,9.45,25.03l-3.45,.98-24.51-39.31,.17-18.97,7.97-.61Z"/><path class="l" d="M399.29,444.98s2.11,12.87-1.29,25.53c-.62,2.3-.7,4.7-.31,7.04,1.46,8.81-2.64,26.96-2.64,26.96h-3.26l-5.68-58.47,13.18-1.06Z"/><path class="ag" d="M398.75,421.48s5.24-1.04,4.38-4.36-10.64-15.36-10.64-15.36l-7.66-.85s.49,1.85,5.32,2.7c4.83,.84,8.6,17.88,8.6,17.88Z"/><path class="s" d="M391.14,404.01c.46-.74,.91-1.49,1.36-2.24h0l-7.66-.86s.49,1.85,5.32,2.7c.34,.06,.67,.2,.99,.41Z"/><polygon class="s" points="391 410.1 391.48 415.66 396.86 413.96 395.47 409.53 391 410.1"/><path class="ag" d="M390.93,400.48s-4.12,6.2-2.98,9.82c1.28,1.82,6.53-.71,6.53-.71v-8.4l-3.55-.71Z"/><path class="i" d="M390.15,400.66s1.35,.2,2.34,1.09c.99,.89,.14,4.49,.14,4.49l-.04,1.27c-.05,1.57,1.2,2.87,2.78,2.87h.1s6.81-6.78,3.97-9.9c-4.97-4.54-9.3,.18-9.3,.18Z"/><path class="ag" d="M391.5,406.1c-.1-.44,.25-.97,.79-1.18,.53-.21,1.05-.03,1.15,.41,.1,.44-.25,.97-.79,1.18-.53,.21-1.05,.03-1.15-.41Z"/><path class="i" d="M388.8,399.34c0,.94,1.04,1.7,2.32,1.7s5.73-.76,5.73-1.7-4.45-1.7-5.73-1.7-2.32,.76-2.32,1.7Z"/><path class="t" d="M402,444.76s5.45-34.09-8.37-31.31c-13.5,2.71-7.52,32.59-7.52,32.59l15.9-1.28Z"/><path class="ag" d="M394.91,416.32s8.85,10.91,7.51,13.96c-1.34,3.05-12.81,15.36-13.46,16.05-1,1.43,.7,6.94-2.7,4.91-3.41-2.03-.65-5.89,.13-6.78l8.55-14.04-5.09-6.86,5.06-7.25Z"/><path class="t" d="M397.7,419.77l-5.84,6.61-2.37-2.41c-1.53-1.55-2.17-3.84-1.49-5.91,.23-.69,.6-1.37,1.19-1.95,.02-.02,.05-.05,.07-.07,1.66-1.59,4.35-1.35,5.79,.44l2.64,3.28Z"/></g><path class="ai" d="M271.76,380.34l-22.69,.1-4.13-3.93c-1.06-1.01-2.42-1.56-3.82-1.55l-17.24,.08c-1.78,0-3.21,1.59-3.2,3.54l.02,4.21,.05,9.94,.15,31.97c0,1.21,.92,2.2,2.03,2.2l49.05-.22c1.11,0,2.01-1,2.01-2.22l-.19-41.91c0-1.21-.92-2.2-2.03-2.2Z"/><g><polygon class="s" points="247.37 366.73 254.35 384.97 258.75 381.69 248.92 365.12 247.37 366.73"/><path class="s" d="M248.24,361.22c.44,.54,.66,1.23,.63,1.93l.31,2.63-.36,.41-1.24,1.1c.04-.55,.11,0,.11,0l-1.99-3.46s-2.4-1.54,.63-3.81c.29-.22,.69-.27,1-.06,.75,.51,.91,1.27,.91,1.27Z"/><path class="p" d="M262.78,398.14c-5.01-6.72-8.43-13.17-8.43-13.17l3.78-4.31,4.64,5.41v12.07Z"/></g><path class="s" d="M273.68,477.18l-2.22,.39c-.46-2.76-7.37-15.82-7.93-22.61-.62-7.53-2.37-15.92-2.37-15.92l7.43-2.21s1.88,0-.18,15.36c4.65,6.1,5.89,19.95,5.28,25Z"/><path class="ag" d="M268.21,431.23s-1.75,10.51-4.17,21.74c2.54,6.78-1.33,25.72-1.4,25.65-.29-.27-1.63,1.37-1.63,1.37,0,0-2.82-16.71-3.44-24.24-.62-7.53-.78-16.72-.78-16.72l11.42-7.8Z"/><path class="i" d="M262.95,477.57s1.06,.9,.86,2.04c-.19,1.14-.47,3.82-.47,3.82h-1.09l.03-2.5c0-.16-2.33,2.5-2.73,2.5h-5.76s-.38-1.69,3-2.23c3.38-.54,6.15-3.64,6.15-3.64Z"/><g><path class="s" d="M271.2,475.66l.15,2.38c.03,.5-.11,1-.39,1.41-.32,.46-.85,1.08-1.73,1.8,1.67,.54,3.19-1.34,3.98-2.58,.39-.61,.54-1.33,.43-2.04l-.28-1.88-2.16,.9Z"/><path class="x" d="M273.68,476.97s1.47,.13,1.71,1.25c.24,1.12,.94,3.38,.94,3.38l-.8,.64-1.13-2.24s-2.43,3.27-2.81,3.43h-6.28s0-2.08,3.93-2.17c3.62-.09,4.45-4.28,4.45-4.28Z"/></g><polygon class="s" points="261.15 388.56 265.65 388.56 263.85 383.27 260.34 385.43 261.15 388.56"/><g><g><rect class="ae" x="231.73" y="322.39" width="6.2" height="34.21" transform="translate(-107.21 108.38) rotate(-21.28)"/><path class="g" d="M242.82,354.74l.17-.07s-10.56-30.03-12.42-31.88c-1.86-1.85-5.6-2.89-2,.78,3.59,3.67,14.26,31.17,14.26,31.17Z"/><g><path class="al" d="M228.4,251.5c-7.32-.02-14.66-.2-21.93,.67-1.17,.14-6.12,.31-2.82,.27-.83,.28-1.66,.56-2.49,.84-2.66,1.97-4.92,4.32-7.79,6.05-2.69,1.63-5.47,2.81-8.26,3.59-9.35,10.79-12.56,26.26-7.03,40.49,6.73,17.31,24.25,27.23,41.87,25.07,1.3-.84,2.71-1.54,4.24-2.07,.51-.28,1.03-.49,1.55-.67,2.02-1.18,4.07-2.32,6.22-3.22,2.25-.94,4.58-1.44,6.92-1.61,14.02-10.42,19.97-29.27,13.33-46.33-4.37-11.23-13.28-19.34-23.81-23.07Z"/><path class="h" d="M214.55,327.66c2.54-1.46,5.31-2.33,8.34-2.54,1.96-.04,3.88-.21,5.8-.5,.1-.03,.2-.04,.3-.07l-28.22-72.54c-18.79,8.8-27.8,30.79-20.16,50.41,5.72,14.7,19.21,24.06,33.94,25.23Z"/><path class="x" d="M200.73,251.92c-20.47,7.96-30.61,31.02-22.65,51.49,7.96,20.47,31.02,30.61,51.49,22.65,20.47-7.96,30.61-31.02,22.65-51.49-7.96-20.47-31.02-30.61-51.49-22.65Zm27.22,69.97c-18.17,7.07-38.64-1.93-45.71-20.1-7.07-18.17,1.93-38.64,20.1-45.71,18.17-7.07,38.64,1.93,45.71,20.1,7.07,18.17-1.93,38.64-20.1,45.71Z"/></g><path class="x" d="M255.74,386.55l-13.6-40.64c-.4-1.02-1.49-1.54-2.44-1.17l-4.89,1.9c-.95,.37-1.4,1.5-1,2.51l10.91,28.01c1.63-2.53,7.59,10.16,11.02,9.39Z"/><path class="ad" d="M260.34,390.56l-18.2-44.65c-.37-.94-1.33-1.45-2.23-1.23,.13,.89,11.62,34.69,16.41,49.41,1.03-.58,2.74-3.24,4.03-3.53Z"/></g><path class="f" d="M222,272.6c1.03,2.64,4,3.95,6.64,2.92,2.64-1.03,3.95-4,2.92-6.64-1.03-2.64-4-3.95-6.64-2.92-2.64,1.03-3.95,4-2.92,6.64Z"/><path class="f" d="M232.06,278.63c.49,1.26,1.9,1.88,3.16,1.39,1.26-.49,1.88-1.9,1.39-3.16-.49-1.26-1.9-1.88-3.16-1.39-1.26,.49-1.88,1.9-1.39,3.16Z"/></g><path class="ak" d="M255.17,394.24c.02-.13,.05-.24,.08-.37-4.45-5.74-8.23-9.79-8.23-9.79l3.78-4.31,8.6,8.17h2.52s3.41-2.24,6.39,.83c1.09,1.12,1.81,4.17,1.09,7.38-2,8.87-.44,13.56-.44,13.56l-11.6,4.33s-.26-7.71-.45-13.12v-.02c-.04-1.06-.39-2.06-.94-2.96-.64-1.03-1.04-2.29-.81-3.71Z"/><g><polygon class="ag" points="240.04 365.85 247.02 384.09 251.42 380.81 241.59 364.24 240.04 365.85"/><path class="ag" d="M240.91,360.34c.44,.54,.66,1.23,.63,1.93l.31,2.63-.36,.41-1.24,1.1c.04-.55,.11,0,.11,0l-1.99-3.46s-2.4-1.54,.63-3.81c.29-.22,.69-.27,1-.06,.75,.51,.91,1.27,.91,1.27Z"/></g><path class="t" d="M257.13,409.45s-1.54,7.86-1.54,12.54c0,2.57,.63,18.76,.63,18.76,0,0,11.02,.8,13.17,.8,.53-13.27,3.56-13.67,3.56-19.86,0-2.69-1.38-5.73-2.44-7.67-.76-1.39-1.24-2.36-1.53-4.3l-.07-.25-11.77-.02Z"/><path class="ag" d="M259.57,373.77l7.38,2.58-.73,5.51c-.01,.08-.03,.15-.05,.23-.14,.03-.28,.05-.42,.09-.02,0-.05,.01-.07,.02-.02,0-.04,0-.07,.01-1.7,.42-2.91,1.82-3.45,3.45-1.05,.18-2.13,.18-3.19-.04-.72-.15-1.38-.38-1.68-.72-1.56-3.4,2.27-11.12,2.27-11.12Z"/><path class="x" d="M259.74,378.45c1.99,.97,1.52,11.2,1.86,18.17,.18,3.75,3,6.82,6.71,7.41,2.63,.42,5.51,.5,7.26-.49-1.15-.94-7.36-10.07-5.37-22.16,.26-1.59,.29-6.02-2.39-8.43-2.98-2.67-9.12,.81-9.12,.81,0,0-1.68,3.35,1.05,4.69Z"/><g><rect class="f" x="202.86" y="295.86" width="5.62" height="5.62"/><rect class="f" x="202.86" y="287.86" width="5.62" height="5.62"/><rect class="f" x="202.86" y="279.87" width="5.62" height="5.62"/><polygon class="f" points="199.24 277.49 212.09 277.49 205.75 267.56 199.24 277.49"/></g><g><rect class="f" x="220.34" y="312.33" width="4.5" height="4.5"/><rect class="f" x="220.34" y="305.93" width="4.5" height="4.5"/><rect class="f" x="220.34" y="299.53" width="4.5" height="4.5"/><polygon class="f" points="217.44 297.63 227.73 297.63 222.65 289.67 217.44 297.63"/></g><g><g><polygon class="ah" points="72.26 227.99 65.12 233.27 73.54 235.33 103.47 240.13 72.26 227.99"/><polygon class="an" points="65.12 233.27 78.35 238.9 76.01 235.72 65.12 233.27"/><polygon class="m" points="72.26 227.99 73.47 219.97 103.47 240.13 72.26 227.99"/><polygon class="y" points="103.47 240.13 73.54 235.33 72.41 247.2 103.47 240.13"/></g><g><path class="ah" d="M64.38,241.81c-.05-.07-.09-.15-.11-.23-.09-.36,.12-.73,.49-.82,1.14-.29,2.3-.48,3.46-.56,.37-.03,.69,.26,.72,.63,.02,.37-.26,.69-.63,.72-1.07,.07-2.15,.25-3.21,.52-.27,.07-.55-.04-.71-.25Z"/><path class="ah" d="M39.82,312.34s-.02-.02-.02-.04c-1.23-1.91-2.13-4.09-2.69-6.49-.08-.36,.14-.73,.51-.81,.36-.08,.72,.15,.81,.51,.52,2.24,1.36,4.28,2.51,6.06,.2,.31,.11,.73-.2,.93-.3,.19-.7,.12-.91-.17Zm-3.16-10.33c-.08-.1-.12-.23-.13-.37-.12-2.34,.08-4.68,.59-6.96,.08-.36,.44-.59,.81-.51,.36,.08,.59,.44,.51,.81-.49,2.16-.68,4.38-.56,6.59,.02,.37-.27,.69-.64,.71-.23,.01-.45-.1-.58-.27Zm1.82-10.67c-.14-.18-.18-.43-.08-.66l.13-.3c.86-1.97,1.96-3.91,3.27-5.77,.22-.31,.64-.38,.94-.16,.31,.21,.38,.64,.16,.94-1.26,1.78-2.32,3.64-3.14,5.53l-.12,.28c-.14,.34-.54,.51-.88,.37-.12-.05-.21-.13-.28-.22Zm5.87-9.14c-.18-.25-.18-.6,.04-.85,1.43-1.62,3.1-3.25,4.94-4.83,.28-.24,.71-.21,.95,.07,.24,.27,.21,.71-.07,.95-1.8,1.54-3.41,3.13-4.81,4.7-.25,.28-.67,.31-.95,.06-.04-.03-.07-.07-.1-.11Zm8.06-7.34c-.22-.3-.16-.72,.13-.94,.13-.1,.26-.2,.4-.3-.71-.89-1.34-1.82-1.9-2.8-.18-.32-.07-.74,.25-.92,.32-.18,.74-.08,.92,.25,.53,.92,1.14,1.82,1.81,2.66,1.27-.92,2.63-1.86,4.14-2.84,.31-.2,.73-.11,.93,.19,.2,.31,.12,.73-.19,.93-1.45,.95-2.77,1.85-4,2.74,.46,.5,.94,.98,1.44,1.43,.28,.26,.3,.68,.05,.95-.25,.28-.68,.3-.95,.05-.57-.52-1.11-1.06-1.63-1.63-.15,.11-.3,.23-.45,.34-.3,.23-.72,.17-.95-.13h0Zm-2.97-7.71c-.04-.06-.08-.12-.1-.2-.45-1.41-.73-2.85-.83-4.28-.06-.89-.06-1.81,0-2.71,.03-.37,.35-.65,.72-.62,.37,.03,.65,.35,.62,.72-.06,.84-.06,1.68,0,2.51,.1,1.33,.35,2.66,.77,3.97,.11,.36-.08,.74-.44,.85-.28,.09-.58-.02-.75-.24Zm9.18,11.48c-.16-.21-.18-.51-.03-.75,.2-.32,.61-.42,.93-.22,1.93,1.18,3.97,2.01,6.08,2.48,.36,.08,.6,.44,.51,.8-.08,.36-.44,.59-.8,.51-2.26-.49-4.44-1.39-6.5-2.64-.08-.05-.14-.11-.19-.17Zm-9.23-22.23c-.12-.17-.17-.38-.1-.6,.66-2.22,1.7-4.33,3.08-6.3,.21-.31,.64-.38,.94-.16,.31,.21,.38,.64,.16,.94-1.3,1.84-2.27,3.83-2.89,5.91-.11,.36-.48,.56-.84,.45-.15-.04-.27-.13-.35-.25Zm19.58,25.22c-.08-.11-.13-.25-.13-.39,0-.37,.3-.68,.67-.68,.57,0,1.14-.04,1.69-.1,1.57-.18,3.15-.66,4.57-1.41,.33-.17,.74-.04,.91,.28,.17,.33,.05,.74-.28,.91-1.56,.82-3.31,1.36-5.05,1.55-.6,.07-1.21,.11-1.83,.11-.22,0-.43-.11-.55-.27Zm-7.52-12.86s-.03-.04-.04-.06c-.19-.32-.08-.74,.24-.93,2.41-1.43,4.43-2.34,6.36-2.87,.36-.1,.73,.11,.83,.47,.1,.36-.11,.73-.47,.83-1.81,.5-3.73,1.37-6.04,2.73-.3,.18-.68,.1-.89-.18Zm-6.43-21.58c-.2-.27-.17-.64,.07-.88,.76-.75,1.58-1.45,2.44-2.08,1.03-.76,2.13-1.44,3.26-2,.33-.17,.74-.03,.91,.3,.17,.33,.03,.74-.3,.9-1.06,.53-2.09,1.16-3.06,1.88-.8,.59-1.57,1.25-2.29,1.95-.27,.26-.69,.26-.95,0-.02-.02-.04-.05-.06-.07Zm23.73,30.36c-.18-.25-.18-.6,.03-.84,1.08-1.26,1.62-2.66,1.59-4.16-.01-.53-.1-1.05-.26-1.55-.11-.36,.08-.74,.44-.85,.36-.11,.74,.08,.85,.44,.2,.63,.31,1.28,.32,1.94,.03,1.81-.63,3.56-1.92,5.06-.24,.28-.67,.32-.95,.07-.04-.03-.07-.07-.1-.11Zm-7.06-12.12c-.09-.12-.14-.26-.13-.42,.01-.37,.32-.67,.7-.65,2.42,.08,4.85,1.02,6.66,2.59,.28,.24,.31,.67,.07,.95-.24,.28-.67,.31-.95,.07-1.56-1.35-3.74-2.19-5.82-2.26-.22,0-.4-.11-.52-.27Z"/><path class="ah" d="M42.48,315.53c-.19-.25-.18-.62,.05-.86,.25-.28,.68-.29,.95-.04,.79,.73,1.67,1.37,2.6,1.9,.32,.18,.44,.6,.25,.92-.19,.32-.6,.44-.92,.25-1.02-.58-1.97-1.28-2.84-2.08-.03-.03-.06-.06-.09-.1Z"/></g></g></svg>